<?xml version="1.0" encoding="iso-8859-1"?>
<!-- Generator: Adobe Illustrator 19.0.0, SVG Export Plug-In . SVG Version: 6.00 Build 0)  -->
<svg version="1.1" id="Capa_1" xmlns="http://www.w3.org/2000/svg" xmlns:xlink="http://www.w3.org/1999/xlink" x="0px" y="0px"
	 viewBox="0 0 490 490" style="enable-background:new 0 0 490 490;" xml:space="preserve">
<path d="M299.62,101.406c-27.864,30.66-49.7,64.323-88.794,125.993c-11.874,18.73-25.392,40.057-41.238,64.65l-44.3,47.743
	c-44.625,0-70.781,40.549-68.319,78.074C59.953,463.311,0,485.493,0,485.493S40.941,490,53.934,490c0.01,0,0.01,0,0.01,0
	c26.885,0,62.857-4.224,81.525-24.339c15.415-16.612,24.959-37.878,27.624-60.615l56.05-60.402
	c22.774-17.037,42.53-31.579,59.885-44.352c57.289-42.178,88.844-65.411,117.034-95.784C482,111.918,490,0,490,0
	S384.667,7.826,299.62,101.406z M121.277,451.195c-10.286,11.087-32.444,17.43-62.683,18.017
	c10.103-11.929,20.085-29.592,18.136-52.764c-1.479-17.582,8.082-50.473,43.87-55.738l23.27,25.068
	C145.483,410.195,137.343,433.874,121.277,451.195z M162.423,376.005l-21.567-23.236l36.452-39.277l21.567,23.24L162.423,376.005z
	 M381.87,190.042c-26.895,28.983-57.917,51.817-114.22,93.271c-15.796,11.625-33.564,24.707-53.798,39.802l-23.84-25.695
	c14.163-22.034,26.421-41.372,37.306-58.544c38.438-60.636,59.609-94.036,86.494-123.004
	c41.928-45.187,94.083-76.029,151.565-89.801C452.616,88.286,423.923,144.723,381.87,190.042z"/>
<g>
</g>
<g>
</g>
<g>
</g>
<g>
</g>
<g>
</g>
<g>
</g>
<g>
</g>
<g>
</g>
<g>
</g>
<g>
</g>
<g>
</g>
<g>
</g>
<g>
</g>
<g>
</g>
<g>
</g>
</svg>
